<?xml version="1.0" encoding="UTF-8" standalone="no"?>
<svg
   xmlns:dc="http://purl.org/dc/elements/1.1/"
   xmlns:cc="http://creativecommons.org/ns#"
   xmlns:rdf="http://www.w3.org/1999/02/22-rdf-syntax-ns#"
   xmlns:svg="http://www.w3.org/2000/svg"
   xmlns="http://www.w3.org/2000/svg"
   xmlns:sodipodi="http://sodipodi.sourceforge.net/DTD/sodipodi-0.dtd"
   xmlns:inkscape="http://www.inkscape.org/namespaces/inkscape"
   version="1.1"
   id="icon-users"
   x="0px"
   y="0px"
   width="50px"
   height="50px"
   viewBox="0 0 50 50"
   enable-background="new 0 0 50 50"
   xml:space="preserve"
   inkscape:version="0.91 r13725"
   sodipodi:docname="icon.svg"><metadata
     id="metadata3474"><rdf:RDF><cc:Work
         rdf:about=""><dc:format>image/svg+xml</dc:format><dc:type
           rdf:resource="http://purl.org/dc/dcmitype/StillImage" /></cc:Work></rdf:RDF></metadata><defs
     id="defs3472"><linearGradient
       y2="1"
       id="svg_1"><stop
         id="stop4766"
         offset="0"
         stop-color="#e8e8e8" /><stop
         id="stop4768"
         offset="1"
         stop-color="#171717" /></linearGradient><linearGradient
       spreadMethod="pad"
       x2="1"
       y1="0"
       x1="0"
       y2="1"
       id="svg_2"><stop
         id="stop4771"
         offset="0"
         stop-color="#e8e8e8" /><stop
         id="stop4773"
         offset="1"
         stop-color="#171717" /></linearGradient><linearGradient
       spreadMethod="pad"
       x2="1"
       y1="0.363281"
       x1="0.488281"
       y2="1"
       id="svg_3"><stop
         id="stop4776"
         offset="0"
         stop-color="#e8e8e8" /><stop
         id="stop4778"
         offset="1"
         stop-color="#171717" /></linearGradient><linearGradient
       spreadMethod="pad"
       x2="1"
       y1="0"
       x1="0"
       y2="1"
       id="svg_4"><stop
         id="stop4781"
         offset="0"
         stop-opacity="0.996094"
         stop-color="#efefef" /><stop
         id="stop4783"
         offset="1"
         stop-opacity="0.996094"
         stop-color="#828282" /></linearGradient><linearGradient
       spreadMethod="pad"
       x2="1"
       y1="0"
       x1="0"
       y2="1"
       id="svg_5"><stop
         id="stop4786"
         offset="0"
         stop-opacity="0.992188"
         stop-color="#ffffff" /><stop
         id="stop4788"
         offset="1"
         stop-opacity="0.996094"
         stop-color="#828282" /></linearGradient><linearGradient
       spreadMethod="pad"
       x2="1"
       y1="0"
       x1="0"
       y2="1"
       id="svg_6"><stop
         id="stop4791"
         offset="0"
         stop-opacity="0.992188"
         stop-color="#ffffff" /><stop
         id="stop4793"
         offset="1"
         stop-opacity="0.996094"
         stop-color="#828282" /><stop
         id="stop4795"
         offset="1"
         stop-opacity="0.996094"
         stop-color="#828282" /></linearGradient><linearGradient
       spreadMethod="pad"
       x2="1"
       y1="0"
       x1="0"
       y2="1"
       id="svg_7"><stop
         id="stop4798"
         offset="0"
         stop-opacity="0.988281"
         stop-color="#ffffff" /><stop
         id="stop4800"
         offset="1"
         stop-opacity="0.992188"
         stop-color="#cccccc" /><stop
         id="stop4802"
         offset="1"
         stop-opacity="0.996094"
         stop-color="#828282" /><stop
         id="stop4804"
         offset="1"
         stop-opacity="0.996094"
         stop-color="#828282" /><stop
         id="stop4806"
         offset="1"
         stop-opacity="0.996094"
         stop-color="#828282" /></linearGradient><linearGradient
       spreadMethod="pad"
       x2="1"
       y1="0"
       x1="0"
       y2="1"
       id="svg_8"><stop
         id="stop4809"
         offset="0"
         stop-opacity="0.988281"
         stop-color="#ffffff" /><stop
         id="stop4811"
         offset="1"
         stop-opacity="0.992188"
         stop-color="#cccccc" /><stop
         id="stop4813"
         offset="1"
         stop-opacity="0.992188"
         stop-color="#cccccc" /><stop
         id="stop4815"
         offset="1"
         stop-opacity="0.996094"
         stop-color="#828282" /><stop
         id="stop4817"
         offset="1"
         stop-opacity="0.996094"
         stop-color="#828282" /><stop
         id="stop4819"
         offset="1"
         stop-opacity="0.996094"
         stop-color="#828282" /></linearGradient><linearGradient
       id="svg_9"><stop
         id="stop4822"
         offset="0"
         stop-color="#ffffff" /><stop
         id="stop4824"
         offset="1"
         stop-color="#000000" /></linearGradient><linearGradient
       id="svg_10"><stop
         id="stop4827"
         offset="0"
         stop-color="#ffffff" /><stop
         id="stop4829"
         offset="1"
         stop-opacity="0.996094"
         stop-color="#dddddd" /></linearGradient><linearGradient
       y2="1"
       x2="1"
       y1="0"
       x1="0"
       id="svg_11"><stop
         id="stop4832"
         offset="0"
         stop-color="#ffffff" /><stop
         id="stop4834"
         offset="1"
         stop-opacity="0.996094"
         stop-color="#dddddd" /></linearGradient><linearGradient
       y2="1"
       x2="1"
       y1="0"
       x1="0"
       id="svg_12"><stop
         id="stop4837"
         offset="0"
         stop-color="#ffffff" /><stop
         id="stop4839"
         offset="1"
         stop-opacity="0.992188"
         stop-color="#f2f2f2" /></linearGradient><linearGradient
       y2="1"
       x2="1"
       id="svg_13"><stop
         id="stop4842"
         offset="0"
         stop-opacity="0.996094"
         stop-color="#ffffff" /><stop
         id="stop4844"
         offset="1"
         stop-opacity="0.996094"
         stop-color="#c1c1c1" /></linearGradient><linearGradient
       y1="0"
       x1="0"
       y2="1"
       x2="1"
       id="svg_14"><stop
         id="stop4847"
         offset="0"
         stop-opacity="0.996094"
         stop-color="#ffffff" /><stop
         id="stop4849"
         offset="1"
         stop-opacity="0.996094"
         stop-color="#c1c1c1" /></linearGradient><linearGradient
       y2="1"
       x2="1"
       id="svg_16"><stop
         id="stop4857"
         offset="0"
         stop-color="#ffffff" /><stop
         id="stop4859"
         offset="1"
         stop-color="#000000" /></linearGradient><linearGradient
       y1="0"
       x1="0"
       y2="1"
       x2="1"
       id="svg_17"><stop
         id="stop4862"
         offset="0"
         stop-color="#ffffff" /><stop
         id="stop4864"
         offset="1"
         stop-opacity="0.996094"
         stop-color="#e0e0e0" /></linearGradient><linearGradient
       y1="0"
       x1="0"
       y2="1"
       x2="1"
       id="svg_18"><stop
         id="stop4867"
         offset="0"
         stop-color="#ffffff" /><stop
         id="stop4869"
         offset="1"
         stop-opacity="0.992188"
         stop-color="#cecece" /></linearGradient></defs><sodipodi:namedview
     pagecolor="#ffffff"
     bordercolor="#666666"
     borderopacity="1"
     objecttolerance="10"
     gridtolerance="10"
     guidetolerance="10"
     inkscape:pageopacity="0"
     inkscape:pageshadow="2"
     inkscape:window-width="1920"
     inkscape:window-height="1017"
     id="namedview3470"
     showgrid="false"
     inkscape:zoom="8.4800001"
     inkscape:cx="49.686883"
     inkscape:cy="42.190995"
     inkscape:window-x="-8"
     inkscape:window-y="-8"
     inkscape:window-maximized="1"
     inkscape:current-layer="icon-users"
     showguides="false"
     inkscape:guide-bbox="true"
     inkscape:snap-text-baseline="true"><sodipodi:guide
       position="-5.003114,59.537057"
       orientation="0,1"
       id="guide4280" /><sodipodi:guide
       position="-10.339769,50.698222"
       orientation="0,1"
       id="guide4282" /><sodipodi:guide
       position="-6.1705073,57.535811"
       orientation="0,1"
       id="guide4284" /><sodipodi:guide
       position="-6.5040482,52.532697"
       orientation="0,1"
       id="guide4286" /><sodipodi:guide
       position="1.0006228,54.533943"
       orientation="0,1"
       id="guide4288" /><sodipodi:guide
       position="39.386793,38.502359"
       orientation="1,0"
       id="guide4292" /><sodipodi:guide
       position="12.264151,32.783019"
       orientation="1,0"
       id="guide4294" /><inkscape:grid
       type="xygrid"
       id="grid4268" /><sodipodi:guide
       position="-6.4206629,25.766037"
       orientation="1,0"
       id="guide6030" /></sodipodi:namedview><linearGradient
     id="SVGID_1_"
     gradientUnits="userSpaceOnUse"
     x1="1095.707"
     y1="1590.3262"
     x2="1107.9801"
     y2="1615.3397"
     gradientTransform="matrix(1 0 0 1 -1090.3984 -1581.9609)"><stop
       offset="0"
       style="stop-color:#EAECEE"
       id="stop3451" /><stop
       offset="1"
       style="stop-color:#D7D8DA"
       id="stop3453" /></linearGradient><linearGradient
     id="SVGID_2_"
     gradientUnits="userSpaceOnUse"
     x1="1121.2383"
     y1="1585.1426"
     x2="1137.368"
     y2="1618.0168"
     gradientTransform="matrix(1 0 0 1 -1090.3984 -1581.9609)"><stop
       offset="0"
       style="stop-color:#EAECEE"
       id="stop3458" /><stop
       offset="1"
       style="stop-color:#D7D8DA"
       id="stop3460" /></linearGradient><path
     inkscape:connector-curvature="0"
     style="fill:#eeeeee;fill-opacity:1"
     d="m 43.943396,17 0,29 c 0,1.1 -0.9,2 -2,2 L 9.9433959,48 c -1.1,0 -1.9999999,-0.9 -1.9999999,-2 l 0,-42 c 0,-1.1 0.8999999,-2 1.9999999,-2 l 19.0000001,0 15,15 z"
     id="path4271" /><polygon
     transform="translate(-0.056604,0)"
     style="fill:#e0e0e0;fill-opacity:1"
     points="44,17 44,32 29,17 "
     id="polygon4275" /><polygon
     transform="translate(-0.056604,0)"
     style="fill:#bdbdbd;fill-opacity:1"
     points="29,2 44,17 29,17 "
     id="polygon4273" /><text
     xml:space="preserve"
     style="font-style:normal;font-weight:normal;font-size:40px;line-height:125%;font-family:sans-serif;letter-spacing:0px;word-spacing:0px;fill:#000000;fill-opacity:1;stroke:none;stroke-width:1px;stroke-linecap:butt;stroke-linejoin:miter;stroke-opacity:1"
     x="9.375"
     y="18.867926"
     id="text4739"
     sodipodi:linespacing="125%"><tspan
       sodipodi:role="line"
       id="tspan4741"
       x="9.375"
       y="18.867926" /></text>
<text
     xml:space="preserve"
     style="font-style:normal;font-weight:normal;font-size:40px;line-height:125%;font-family:sans-serif;letter-spacing:0px;word-spacing:0px;fill:#000000;fill-opacity:1;stroke:none;stroke-width:1px;stroke-linecap:butt;stroke-linejoin:miter;stroke-opacity:1"
     x="-0.94339621"
     y="20.636791"
     id="text4743"
     sodipodi:linespacing="125%"><tspan
       sodipodi:role="line"
       id="tspan4747"
       x="-0.94339621"
       y="20.636791" /></text>
<g
     id="g4257"
     transform="translate(2.0392563,-0.5820693)" /><g
     id="g4883"
     transform="translate(0,-0.80440146)" /><g
     id="g6008"
     transform="translate(0.08338523,5.0031139)" /><g
     id="g6032"
     transform="translate(0.11320757,-0.05896226)"><g
       id="g6014"
       transform="matrix(1.5927843,0,0,1,-3.9611862,14.760813)" /><g
       transform="matrix(1.5927843,0,0,1,-3.9611862,17.137293)"
       id="g6022" /><g
       id="g6026"
       transform="matrix(1.5927843,0,0,1,-3.9611862,19.513772)" /></g><path
     style="fill:#424242;fill-opacity:1;stroke:none"
     d="m 30.772787,19.216336 -0.310643,1.488607 c -0.318452,0.05004 -0.625167,0.142158 -0.912682,0.270783 l -1.069378,-1.080376 -1.217827,0.985532 0.832961,1.27281 c -0.185568,0.254595 -0.337136,0.534506 -0.452219,0.835708 l -1.521596,-0.0068 -0.163569,1.558709 1.48861,0.310642 c 0.05001,0.318274 0.142267,0.622558 0.27078,0.909935 l -1.080374,1.072127 0.985532,1.217827 1.272807,-0.834335 c 0.254398,0.185422 0.534772,0.338537 0.835711,0.453591 l -0.0068,1.520224 1.558708,0.163567 0.309266,-1.488608 c 0.318545,-0.04998 0.625086,-0.140795 0.912684,-0.269405 l 1.070753,1.080374 1.217826,-0.986907 -0.834335,-1.271433 c 0.185564,-0.254513 0.338476,-0.534605 0.453594,-0.83571 l 1.520221,0.0055 0.163569,-1.558707 -1.48861,-0.307894 c -0.05001,-0.318718 -0.140679,-0.62632 -0.269404,-0.914058 l 1.080374,-1.069379 -0.986907,-1.217827 -1.271433,0.83296 c -0.25475,-0.185773 -0.535756,-0.338514 -0.837127,-0.45366 l 0.0068,-1.520221 -1.557332,-0.163569 z m 0.258412,3.620491 c 0.04899,1.74e-4 0.09868,0.0017 0.148447,0.0068 0.796283,0.08365 1.372949,0.796789 1.289302,1.593071 -0.08365,0.796284 -0.796788,1.374324 -1.593072,1.290677 -0.796282,-0.08365 -1.374323,-0.79679 -1.290676,-1.593071 0.07842,-0.746517 0.711217,-1.300099 1.445999,-1.297551 z m -11.184491,0.127832 -0.208927,2.070031 c -0.426183,0.113605 -0.82986,0.281453 -1.202708,0.497577 l -1.610939,-1.316793 -1.516099,1.516098 1.316793,1.612316 c -0.216119,0.372968 -0.384035,0.776398 -0.497578,1.202708 l -2.070031,0.207552 0,2.144256 2.070031,0.208928 c 0.11354,0.425944 0.281627,0.828653 0.497578,1.201332 l -1.316793,1.612316 1.516099,1.516098 1.612314,-1.316793 c 0.372675,0.215946 0.775387,0.384035 1.201333,0.497577 l 0.208927,2.070031 2.144254,0 0.207553,-2.070031 c 0.426314,-0.113547 0.829742,-0.281458 1.202707,-0.497577 l 1.612315,1.316793 1.516099,-1.516098 -1.316794,-1.610941 c 0.216125,-0.37285 0.383975,-0.776527 0.497578,-1.202707 l 2.070032,-0.208928 0,-2.144256 -2.070032,-0.207552 c -0.113605,-0.426549 -0.281285,-0.830942 -0.497578,-1.204083 l 1.316794,-1.610941 -1.516099,-1.516098 -1.61094,1.316793 c -0.373138,-0.21629 -0.777531,-0.383969 -1.204082,-0.497577 l -0.207553,-2.070031 -2.144254,0 z m 1.072127,4.878181 c 1.095496,0 1.983437,0.887939 1.983437,1.983438 0,1.095495 -0.887941,1.983434 -1.983437,1.983434 -1.095496,0 -1.983437,-0.887939 -1.983437,-1.983434 0,-1.095499 0.887941,-1.983438 1.983437,-1.983438 z m 9.103462,2.648704 -0.218548,1.088624 c -0.223817,0.0366 -0.438456,0.10383 -0.640529,0.19793 l -0.753235,-0.790349 -0.854956,0.721624 0.585547,0.930552 c -0.130422,0.186255 -0.238006,0.391307 -0.318889,0.611661 l -1.068004,-0.0055 -0.115459,1.140854 1.046011,0.226795 c 0.03515,0.232844 0.09936,0.456404 0.189683,0.666643 l -0.758736,0.783478 0.692761,0.89069 0.894813,-0.610288 c 0.178796,0.135651 0.375418,0.247089 0.586922,0.331261 l -0.0041,1.113363 1.095494,0.119583 0.217175,-1.089997 c 0.223879,-0.03657 0.438396,-0.102464 0.640527,-0.196555 l 0.753238,0.79035 0.85633,-0.721625 -0.586921,-0.930552 c 0.130416,-0.186195 0.237981,-0.39138 0.318888,-0.611661 l 1.06938,0.0041 0.114083,-1.139481 -1.04601,-0.226794 c -0.03515,-0.233169 -0.09922,-0.457513 -0.189683,-0.668018 l 0.758735,-0.782103 -0.69276,-0.892066 -0.893439,0.610289 c -0.179022,-0.135855 -0.376492,-0.247015 -0.588304,-0.331255 l 0.0055,-1.111988 -1.095494,-0.119583 z m 0.181438,2.647331 c 0.03443,1.29e-4 0.06948,0.0017 0.104464,0.0055 0.559645,0.0612 0.964599,0.583048 0.905811,1.165593 -0.05879,0.582546 -0.559216,1.005491 -1.118863,0.944297 -0.559645,-0.0612 -0.965974,-0.583048 -0.907185,-1.165594 0.05511,-0.546137 0.499354,-0.951661 1.015773,-0.949796 z"
     id="path3055"
     inkscape:connector-curvature="0" /></svg>